<?xml version="1.0" encoding="UTF-8"?>
<svg xmlns="http://www.w3.org/2000/svg" width="434" height="406" viewBox="0 0 434 406">
  <path d="M 136 396 L 139 399 L 332 401 L 344 399 L 358 393 L 376 377 L 387 356 L 412 263 L 411 257 L 278 254 L 182 255 Z" fill="#f85b32" fill-rule="evenodd" />
  <path d="M 194 216 L 197 219 L 422 220 L 426 215 L 429 199 L 424 186 L 417 179 L 406 175 L 232 173 L 214 179 L 205 187 Z" fill="#f85b32" fill-rule="evenodd" />
  <path d="M 319 34 L 288 18 L 250 7 L 228 4 L 189 4 L 168 7 L 143 14 L 103 33 L 70 58 L 43 89 L 21 128 L 8 169 L 4 199 L 6 244 L 17 287 L 33 320 L 52 346 L 86 377 L 99 385 L 105 383 L 126 324 L 125 319 L 105 299 L 91 279 L 83 262 L 75 231 L 74 202 L 77 181 L 86 154 L 100 130 L 120 108 L 138 94 L 164 81 L 193 74 L 225 74 L 246 78 L 279 91 L 308 112 L 317 110 L 339 97 L 364 77 L 364 72 L 347 55 Z" fill="#f85b32" fill-rule="evenodd" />
</svg>
