<svg id="svg" version="1.1" xmlns="http://www.w3.org/2000/svg" xmlns:xlink="http://www.w3.org/1999/xlink" width="400" height="400" viewBox="0, 0, 400,400"><g id="svgg"><path id="path0" d="M275.600 84.003 C 270.720 84.362,264.420 85.208,259.800 86.125 C 257.204 86.641,256.089 86.893,251.800 87.936 C 250.920 88.150,248.490 88.956,246.400 89.728 C 244.310 90.500,241.700 91.443,240.600 91.823 C 235.561 93.564,221.996 100.773,218.342 103.651 C 217.541 104.283,216.714 104.800,216.504 104.800 C 216.295 104.800,215.781 105.181,215.362 105.647 C 214.943 106.113,214.302 106.608,213.937 106.747 C 213.037 107.090,208.203 111.125,204.170 114.900 C 202.349 116.605,200.575 118.000,200.229 118.000 C 199.883 118.000,199.600 118.204,199.600 118.454 C 199.600 118.704,198.280 120.369,196.667 122.154 C 189.433 130.160,183.257 139.398,178.415 149.456 C 177.053 152.285,175.772 154.913,175.569 155.295 C 175.366 155.677,175.200 156.174,175.200 156.399 C 175.200 156.624,174.855 157.572,174.433 158.504 C 173.747 160.023,172.632 163.234,171.623 166.600 C 170.862 169.137,168.878 177.928,168.463 180.600 C 168.224 182.140,167.800 184.840,167.521 186.600 C 166.842 190.880,166.842 209.120,167.521 213.400 C 167.800 215.160,168.224 217.860,168.463 219.400 C 168.878 222.072,170.862 230.863,171.623 233.400 C 172.632 236.766,173.747 239.977,174.433 241.496 C 174.855 242.428,175.200 243.376,175.200 243.601 C 175.200 243.826,175.366 244.323,175.569 244.705 C 175.772 245.087,177.053 247.715,178.415 250.544 C 183.257 260.602,189.530 269.980,196.500 277.580 C 198.205 279.439,199.600 281.194,199.600 281.480 C 199.600 281.766,199.883 282.000,200.229 282.000 C 200.575 282.000,202.349 283.395,204.170 285.100 C 208.203 288.875,213.037 292.910,213.937 293.253 C 214.302 293.392,214.943 293.887,215.362 294.353 C 215.781 294.819,216.295 295.200,216.504 295.200 C 216.714 295.200,217.541 295.717,218.342 296.349 C 221.996 299.227,235.561 306.436,240.600 308.177 C 241.700 308.557,244.310 309.500,246.400 310.272 C 248.490 311.044,250.920 311.850,251.800 312.064 C 256.080 313.105,257.203 313.359,259.800 313.877 C 276.054 317.117,302.758 316.559,312.200 312.782 C 313.447 312.283,318.671 310.800,319.181 310.800 C 319.433 310.800,320.384 310.440,321.294 310.000 C 322.205 309.560,323.283 309.200,323.689 309.200 C 324.096 309.200,324.827 308.950,325.314 308.645 C 325.801 308.340,327.370 307.590,328.800 306.977 C 332.491 305.395,337.524 302.922,339.400 301.768 C 340.280 301.227,341.945 300.317,343.100 299.745 C 344.255 299.174,345.200 298.550,345.200 298.359 C 345.200 298.168,346.235 297.480,347.500 296.830 C 353.638 293.676,364.644 283.881,372.415 274.656 C 375.716 270.737,375.962 270.412,379.400 265.421 C 381.692 262.095,382.348 261.011,385.105 256.000 C 385.771 254.790,386.783 252.990,387.353 252.000 C 387.923 251.010,388.498 249.930,388.630 249.600 C 388.762 249.270,389.593 247.290,390.477 245.200 C 391.360 243.110,392.422 240.590,392.837 239.600 C 393.556 237.881,394.437 234.785,396.593 226.400 C 397.130 224.310,397.858 220.530,398.212 218.000 C 398.565 215.470,399.112 212.384,399.427 211.142 C 399.839 209.517,400.000 206.394,400.000 200.000 C 400.000 193.606,399.839 190.483,399.427 188.858 C 399.112 187.616,398.565 184.530,398.212 182.000 C 397.858 179.470,397.130 175.690,396.593 173.600 C 394.437 165.215,393.556 162.119,392.837 160.400 C 392.422 159.410,391.360 156.890,390.477 154.800 C 389.593 152.710,388.762 150.730,388.630 150.400 C 388.498 150.070,387.923 148.990,387.353 148.000 C 386.783 147.010,385.771 145.210,385.105 144.000 C 384.440 142.790,383.424 140.957,382.847 139.927 C 375.673 127.096,357.709 108.416,347.500 103.170 C 346.235 102.520,345.200 101.831,345.200 101.638 C 345.200 101.446,344.398 100.911,343.417 100.450 C 342.437 99.989,340.682 99.017,339.517 98.289 C 337.324 96.918,333.299 94.939,328.800 93.019 C 327.370 92.408,325.801 91.660,325.314 91.355 C 324.827 91.050,324.096 90.800,323.689 90.800 C 323.283 90.800,322.205 90.440,321.294 90.000 C 320.384 89.560,319.433 89.200,319.181 89.200 C 318.662 89.200,313.415 87.706,312.200 87.213 C 306.799 85.018,286.274 83.218,275.600 84.003 " stroke="none" fill="#fbab2c" fill-rule="evenodd"></path><path id="path1" d="M104.600 84.028 C 103.500 84.206,101.070 84.561,99.200 84.818 C 93.176 85.644,88.602 86.705,81.400 88.948 C 73.639 91.365,64.122 95.562,58.293 99.139 C 56.804 100.052,55.492 100.800,55.377 100.800 C 55.065 100.800,51.702 103.167,45.536 107.725 C 33.051 116.956,18.681 134.377,12.316 148.000 C 10.297 152.321,8.833 155.673,8.035 157.800 C 7.541 159.120,6.970 160.513,6.768 160.895 C 6.566 161.277,6.400 161.864,6.400 162.200 C 6.400 162.536,6.238 163.123,6.039 163.505 C 5.840 163.887,5.454 165.010,5.181 166.000 C 4.908 166.990,4.426 168.610,4.109 169.600 C 3.792 170.590,3.369 172.300,3.169 173.400 C 2.969 174.500,2.612 176.300,2.377 177.400 C 1.906 179.598,1.422 182.514,0.717 187.400 C 0.119 191.539,0.119 208.461,0.717 212.600 C 1.422 217.486,1.906 220.402,2.377 222.600 C 2.612 223.700,2.969 225.500,3.169 226.600 C 3.369 227.700,3.792 229.410,4.109 230.400 C 4.426 231.390,4.908 233.010,5.181 234.000 C 5.454 234.990,5.840 236.113,6.039 236.495 C 6.238 236.877,6.400 237.464,6.400 237.800 C 6.400 238.136,6.566 238.723,6.768 239.105 C 6.970 239.487,7.541 240.880,8.035 242.200 C 8.833 244.327,10.297 247.679,12.316 252.000 C 18.393 265.005,32.083 281.877,44.125 291.200 C 48.172 294.333,55.054 299.200,55.438 299.200 C 55.538 299.200,56.740 299.907,58.110 300.771 C 63.103 303.920,73.788 308.706,80.200 310.666 C 81.960 311.204,83.813 311.814,84.319 312.022 C 84.824 312.230,85.669 312.400,86.195 312.400 C 86.722 312.400,87.249 312.556,87.367 312.746 C 87.484 312.936,88.260 313.198,89.090 313.327 C 89.921 313.456,91.770 313.817,93.200 314.128 C 94.630 314.439,97.330 314.907,99.200 315.166 C 101.070 315.426,103.701 315.810,105.046 316.019 C 118.462 318.108,145.047 314.521,158.700 308.779 C 159.195 308.570,160.005 308.245,160.500 308.054 C 169.790 304.488,183.617 296.119,191.982 289.000 C 194.969 286.457,199.600 281.846,199.600 281.413 C 199.600 281.164,198.205 279.439,196.500 277.580 C 189.530 269.980,183.257 260.602,178.415 250.544 C 177.053 247.715,175.772 245.087,175.569 244.705 C 175.366 244.323,175.200 243.826,175.200 243.601 C 175.200 243.376,174.855 242.428,174.433 241.496 C 173.747 239.977,172.632 236.766,171.623 233.400 C 170.862 230.863,168.878 222.072,168.463 219.400 C 168.224 217.860,167.800 215.160,167.521 213.400 C 166.842 209.120,166.842 190.880,167.521 186.600 C 167.800 184.840,168.224 182.140,168.463 180.600 C 168.878 177.928,170.862 169.137,171.623 166.600 C 172.632 163.234,173.747 160.023,174.433 158.504 C 174.855 157.572,175.200 156.624,175.200 156.399 C 175.200 156.174,175.366 155.677,175.569 155.295 C 175.772 154.913,177.053 152.285,178.415 149.456 C 183.257 139.398,189.433 130.160,196.667 122.154 C 200.236 118.205,200.249 118.754,196.496 115.167 C 191.533 110.424,187.607 107.264,181.800 103.340 C 176.411 99.698,165.984 94.120,160.400 91.892 C 159.850 91.673,159.040 91.347,158.600 91.168 C 144.298 85.358,117.942 81.873,104.600 84.028 " stroke="none" fill="#eb051c" fill-rule="evenodd"></path><path id="path2" d="M0.054 93.100 C 0.084 144.305,0.176 185.750,0.259 185.200 C 0.925 180.755,2.670 172.277,3.573 169.100 C 3.808 168.275,4.193 166.925,4.428 166.100 C 4.663 165.275,4.955 164.192,5.076 163.694 C 5.197 163.196,5.454 162.690,5.648 162.570 C 5.841 162.451,6.000 162.001,6.000 161.571 C 6.000 161.141,6.180 160.432,6.400 159.995 C 6.620 159.558,6.980 158.842,7.200 158.405 C 7.420 157.968,7.600 157.248,7.600 156.805 C 7.600 156.362,7.780 156.000,8.000 156.000 C 8.220 156.000,8.400 155.728,8.400 155.395 C 8.400 155.062,8.564 154.477,8.765 154.095 C 9.145 153.372,10.632 150.169,11.878 147.387 C 13.021 144.834,16.373 139.083,19.171 134.870 C 21.579 131.246,23.123 129.188,26.723 124.801 C 29.173 121.817,38.122 112.610,39.311 111.851 C 39.922 111.461,40.822 110.746,41.311 110.262 C 41.800 109.778,42.830 108.941,43.600 108.402 C 44.370 107.863,45.360 107.077,45.800 106.656 C 48.849 103.740,61.796 96.131,69.400 92.787 C 73.003 91.202,73.880 90.836,75.600 90.196 C 76.590 89.827,77.760 89.381,78.200 89.203 C 79.892 88.521,81.708 87.984,86.600 86.721 C 87.480 86.493,88.650 86.170,89.200 86.003 C 90.639 85.566,93.799 84.916,96.800 84.441 C 98.230 84.215,100.750 83.802,102.400 83.524 C 109.377 82.348,128.419 82.942,137.600 84.623 C 140.404 85.136,141.240 85.323,145.400 86.364 C 146.280 86.584,147.540 86.876,148.200 87.012 C 148.860 87.149,149.760 87.402,150.200 87.575 C 150.640 87.748,151.720 88.107,152.600 88.373 C 158.439 90.140,168.918 94.711,173.600 97.535 C 174.370 97.999,175.694 98.757,176.542 99.219 C 179.998 101.102,188.099 106.704,189.200 107.974 C 189.310 108.101,190.088 108.718,190.930 109.345 C 191.771 109.973,193.032 111.052,193.731 111.743 C 198.698 116.652,200.130 117.377,201.630 115.744 C 202.398 114.909,206.490 111.369,210.131 108.390 C 212.522 106.434,215.281 104.388,216.600 103.591 C 217.480 103.060,218.502 102.350,218.870 102.013 C 219.239 101.676,220.589 100.860,221.870 100.200 C 223.152 99.540,224.472 98.786,224.804 98.525 C 225.686 97.831,235.062 93.044,237.400 92.094 C 238.500 91.647,240.480 90.886,241.800 90.402 C 243.120 89.918,244.560 89.386,245.000 89.220 C 264.300 81.931,294.571 80.771,313.200 86.607 C 314.190 86.917,316.440 87.621,318.200 88.171 C 322.887 89.635,327.634 91.368,330.065 92.504 C 335.563 95.073,336.709 95.604,338.227 96.281 C 342.856 98.345,354.859 106.583,359.200 110.674 C 359.970 111.399,360.753 111.995,360.940 111.997 C 361.126 111.998,363.447 114.205,366.096 116.900 C 370.498 121.378,372.875 124.052,375.600 127.595 C 376.150 128.309,376.976 129.368,377.435 129.947 C 378.582 131.394,382.127 136.707,383.661 139.279 C 387.167 145.154,388.114 147.081,391.872 156.000 C 392.197 156.770,392.808 158.170,393.231 159.111 C 393.654 160.052,394.000 161.177,394.000 161.611 C 394.000 162.045,394.166 162.400,394.368 162.400 C 394.571 162.400,394.850 162.985,394.989 163.700 C 395.127 164.415,395.664 166.440,396.181 168.200 C 397.342 172.154,398.225 176.076,398.836 180.000 C 399.093 181.650,399.448 183.360,399.626 183.800 C 399.804 184.240,399.961 143.065,399.975 92.300 L 400.000 0.000 200.000 0.000 L 0.000 0.000 0.054 93.100 M0.054 306.900 L 0.000 400.000 200.000 400.000 L 400.000 400.000 399.975 307.700 C 399.961 256.935,399.804 215.760,399.626 216.200 C 399.448 216.640,399.093 218.350,398.836 220.000 C 398.225 223.924,397.342 227.846,396.181 231.800 C 395.664 233.560,395.127 235.585,394.989 236.300 C 394.850 237.015,394.571 237.600,394.368 237.600 C 394.166 237.600,394.000 237.955,394.000 238.389 C 394.000 238.823,393.654 239.948,393.231 240.889 C 392.808 241.830,392.199 243.230,391.877 244.000 C 388.294 252.571,387.216 254.764,383.661 260.721 C 382.127 263.293,378.582 268.606,377.435 270.053 C 376.976 270.632,376.150 271.691,375.600 272.405 C 372.875 275.948,370.498 278.622,366.096 283.100 C 363.447 285.795,361.126 288.002,360.940 288.003 C 360.753 288.005,359.970 288.602,359.200 289.329 C 357.253 291.168,349.912 296.702,346.885 298.613 C 345.501 299.486,343.481 300.785,342.394 301.500 C 341.308 302.215,340.306 302.800,340.166 302.800 C 340.027 302.800,338.268 303.590,336.257 304.556 C 329.593 307.756,327.140 308.856,325.462 309.395 C 324.548 309.688,321.963 310.574,319.718 311.364 C 317.472 312.154,315.256 312.800,314.791 312.800 C 314.327 312.800,313.563 313.006,313.093 313.257 C 311.928 313.881,306.463 315.059,300.200 316.037 C 283.105 318.706,260.213 316.526,245.000 310.780 C 244.560 310.614,243.120 310.082,241.800 309.598 C 240.480 309.114,238.500 308.353,237.400 307.906 C 235.062 306.956,225.686 302.169,224.804 301.475 C 224.472 301.214,223.152 300.460,221.870 299.800 C 220.589 299.140,219.239 298.324,218.870 297.987 C 218.502 297.650,217.480 296.940,216.600 296.409 C 215.186 295.555,211.687 292.944,210.000 291.482 C 209.670 291.196,207.960 289.753,206.200 288.276 C 204.440 286.798,202.460 285.052,201.800 284.395 C 199.952 282.556,199.131 282.949,193.737 288.257 C 193.034 288.948,191.771 290.027,190.930 290.655 C 190.088 291.282,189.310 291.899,189.200 292.026 C 188.099 293.296,179.998 298.898,176.542 300.781 C 175.694 301.243,174.370 302.001,173.600 302.465 C 168.918 305.289,158.439 309.860,152.600 311.627 C 151.720 311.893,150.640 312.252,150.200 312.425 C 149.760 312.598,148.860 312.851,148.200 312.988 C 147.540 313.124,146.325 313.408,145.500 313.618 C 144.675 313.828,143.235 314.189,142.300 314.420 C 127.819 318.000,106.441 318.005,91.000 314.432 C 87.199 313.552,80.046 311.517,78.200 310.790 C 77.760 310.616,76.590 310.173,75.600 309.804 C 73.891 309.168,73.159 308.863,69.400 307.216 C 62.115 304.025,48.756 296.172,45.800 293.344 C 45.360 292.923,44.370 292.134,43.600 291.592 C 42.830 291.050,41.578 290.020,40.817 289.304 C 40.057 288.588,39.157 287.887,38.817 287.748 C 38.139 287.469,29.076 278.066,26.723 275.199 C 23.123 270.812,21.579 268.754,19.171 265.130 C 16.373 260.917,13.021 255.166,11.878 252.613 C 10.632 249.831,9.145 246.628,8.765 245.905 C 8.564 245.523,8.400 244.938,8.400 244.605 C 8.400 244.272,8.220 244.000,8.000 244.000 C 7.780 244.000,7.600 243.638,7.600 243.195 C 7.600 242.752,7.420 242.032,7.200 241.595 C 6.980 241.158,6.620 240.442,6.400 240.005 C 6.180 239.568,6.000 238.859,6.000 238.429 C 6.000 237.999,5.841 237.549,5.648 237.430 C 5.454 237.310,5.197 236.804,5.076 236.306 C 4.955 235.808,4.673 234.770,4.450 234.000 C 3.600 231.061,3.136 229.352,2.822 228.000 C 2.089 224.846,0.665 217.511,0.259 214.800 C 0.176 214.250,0.084 255.695,0.054 306.900 " stroke="none" fill="#fbfbfb" fill-rule="evenodd"></path><path id="path3" d="M109.600 83.080 C 106.269 83.340,94.613 84.844,93.200 85.196 C 92.430 85.388,90.180 85.938,88.200 86.418 C 82.258 87.860,77.322 89.459,73.304 91.246 C 72.372 91.661,71.513 92.000,71.396 92.000 C 71.279 92.000,69.639 92.720,67.752 93.600 C 65.865 94.480,64.256 95.200,64.178 95.200 C 64.099 95.200,63.082 95.766,61.918 96.459 C 60.753 97.151,58.810 98.254,57.600 98.911 C 45.691 105.370,31.597 117.957,22.770 130.018 C 17.133 137.721,13.496 143.968,9.624 152.600 C 8.933 154.140,8.195 155.713,7.984 156.095 C 7.773 156.477,7.600 157.116,7.600 157.515 C 7.600 157.914,7.436 158.411,7.235 158.620 C 6.834 159.038,5.025 164.252,4.190 167.400 C 3.899 168.500,3.297 170.751,2.854 172.402 C 1.153 178.740,-0.818 193.034,0.400 190.200 C 0.589 189.760,0.756 188.665,0.772 187.767 C 0.800 186.135,1.100 184.222,2.272 178.200 C 2.614 176.440,3.038 174.190,3.212 173.200 C 3.387 172.210,3.790 170.590,4.108 169.600 C 4.425 168.610,4.908 166.990,5.181 166.000 C 5.454 165.010,5.840 163.887,6.039 163.505 C 6.238 163.123,6.400 162.536,6.400 162.200 C 6.400 161.864,6.566 161.277,6.768 160.895 C 6.970 160.513,7.541 159.120,8.035 157.800 C 8.833 155.673,10.297 152.321,12.316 148.000 C 18.702 134.333,33.046 116.955,45.599 107.678 C 51.724 103.151,55.067 100.800,55.377 100.800 C 55.492 100.800,56.804 100.052,58.293 99.139 C 66.512 94.095,80.002 88.764,90.400 86.450 C 94.614 85.512,95.979 85.260,99.200 84.823 C 101.070 84.569,103.701 84.190,105.046 83.981 C 118.500 81.886,145.569 85.559,158.800 91.275 C 159.350 91.513,160.160 91.838,160.600 91.999 C 165.028 93.615,176.457 99.729,181.800 103.340 C 187.528 107.211,191.507 110.405,196.323 115.000 C 199.327 117.866,200.000 118.357,200.000 117.682 C 200.000 117.470,199.235 116.661,198.300 115.885 C 197.365 115.108,195.966 113.872,195.191 113.137 C 191.500 109.635,185.973 105.396,180.400 101.792 C 174.985 98.291,163.175 92.000,162.015 92.000 C 161.782 92.000,160.828 91.661,159.896 91.246 C 146.717 85.386,125.077 81.872,109.600 83.080 M0.028 210.746 C -0.007 212.935,1.782 223.602,2.854 227.598 C 3.297 229.249,3.899 231.500,4.190 232.600 C 5.025 235.748,6.834 240.962,7.235 241.380 C 7.436 241.589,7.600 242.086,7.600 242.485 C 7.600 242.884,7.773 243.523,7.984 243.905 C 8.195 244.287,8.933 245.860,9.624 247.400 C 13.496 256.032,17.133 262.279,22.770 269.982 C 27.040 275.816,35.738 285.200,40.012 288.582 C 40.555 289.013,42.710 290.729,44.800 292.397 C 48.901 295.670,54.082 299.190,57.600 301.093 C 58.810 301.747,60.753 302.849,61.918 303.541 C 63.082 304.234,64.099 304.800,64.178 304.800 C 64.256 304.800,65.865 305.520,67.752 306.400 C 69.639 307.280,71.279 308.000,71.396 308.000 C 71.513 308.000,72.372 308.339,73.304 308.754 C 77.938 310.814,84.236 312.729,93.000 314.741 C 113.067 319.348,141.869 316.770,159.896 308.754 C 160.828 308.339,161.782 308.000,162.015 308.000 C 162.498 308.000,169.602 304.504,173.800 302.201 C 181.163 298.162,189.377 292.243,195.791 286.355 C 196.896 285.341,198.430 283.951,199.200 283.267 C 200.051 282.511,200.365 282.022,200.000 282.019 C 199.670 282.016,198.049 283.316,196.398 284.907 C 191.642 289.490,187.630 292.720,181.800 296.660 C 176.457 300.271,165.028 306.385,160.600 308.001 C 160.160 308.162,159.350 308.487,158.800 308.725 C 145.569 314.441,118.500 318.114,105.046 316.019 C 103.701 315.810,101.070 315.426,99.200 315.166 C 97.330 314.907,94.630 314.439,93.200 314.128 C 91.770 313.817,89.921 313.456,89.090 313.327 C 88.260 313.198,87.484 312.936,87.367 312.746 C 87.249 312.556,86.722 312.400,86.195 312.400 C 85.669 312.400,84.824 312.230,84.319 312.022 C 83.813 311.814,81.960 311.204,80.200 310.666 C 73.788 308.706,63.103 303.920,58.110 300.771 C 56.740 299.907,55.538 299.200,55.438 299.200 C 55.054 299.200,48.164 294.328,44.126 291.200 C 32.057 281.853,18.402 265.024,12.316 252.000 C 10.297 247.679,8.833 244.327,8.035 242.200 C 7.541 240.880,6.970 239.487,6.768 239.105 C 6.566 238.723,6.400 238.136,6.400 237.800 C 6.400 237.464,6.238 236.877,6.039 236.495 C 5.840 236.113,5.454 234.990,5.181 234.000 C 4.908 233.010,4.425 231.390,4.108 230.400 C 3.790 229.410,3.387 227.790,3.212 226.800 C 3.038 225.810,2.614 223.560,2.272 221.800 C 1.100 215.778,0.800 213.865,0.772 212.233 C 0.730 209.817,0.065 208.486,0.028 210.746 " stroke="none" fill="#f893a1" fill-rule="evenodd"></path><path id="path4" d="M268.600 83.785 C 258.309 85.156,251.779 86.659,245.000 89.220 C 244.560 89.386,243.120 89.918,241.800 90.402 C 240.480 90.886,238.500 91.647,237.400 92.094 C 235.062 93.044,225.686 97.831,224.804 98.525 C 224.472 98.786,223.152 99.540,221.870 100.200 C 220.589 100.860,219.239 101.676,218.870 102.013 C 218.502 102.350,217.480 103.060,216.600 103.591 C 215.281 104.388,212.522 106.434,210.131 108.390 C 206.490 111.369,202.398 114.909,201.630 115.744 C 201.097 116.325,200.428 116.800,200.143 116.800 C 199.847 116.800,199.724 117.057,199.855 117.400 C 200.241 118.404,200.731 118.120,204.170 114.900 C 208.203 111.125,213.037 107.090,213.937 106.747 C 214.302 106.608,214.943 106.113,215.362 105.647 C 215.781 105.181,216.295 104.800,216.504 104.800 C 216.714 104.800,217.541 104.283,218.342 103.651 C 221.996 100.773,235.561 93.564,240.600 91.823 C 241.700 91.443,244.310 90.500,246.400 89.728 C 248.490 88.956,250.920 88.150,251.800 87.936 C 256.080 86.895,257.203 86.641,259.800 86.123 C 276.105 82.873,302.891 83.430,312.200 87.213 C 313.415 87.706,318.662 89.200,319.181 89.200 C 319.433 89.200,320.384 89.560,321.294 90.000 C 322.205 90.440,323.283 90.800,323.689 90.800 C 324.096 90.800,324.827 91.050,325.314 91.355 C 325.801 91.660,327.370 92.408,328.800 93.019 C 333.299 94.939,337.324 96.918,339.517 98.289 C 340.682 99.017,342.437 99.989,343.417 100.450 C 344.398 100.911,345.200 101.446,345.200 101.638 C 345.200 101.831,346.235 102.520,347.500 103.170 C 357.709 108.416,375.673 127.096,382.847 139.927 C 383.424 140.957,384.440 142.790,385.105 144.000 C 385.771 145.210,386.783 147.010,387.353 148.000 C 387.923 148.990,388.498 150.070,388.630 150.400 C 388.762 150.730,389.593 152.710,390.477 154.800 C 391.360 156.890,392.422 159.410,392.837 160.400 C 393.251 161.390,394.048 163.910,394.607 166.000 C 395.166 168.090,395.985 171.150,396.427 172.800 C 396.869 174.450,397.668 178.590,398.204 182.000 C 399.457 189.983,400.010 191.797,399.849 187.400 C 399.697 183.223,398.004 174.352,396.186 168.200 C 395.666 166.440,395.127 164.415,394.989 163.700 C 394.850 162.985,394.571 162.400,394.368 162.400 C 394.166 162.400,394.000 162.045,394.000 161.611 C 394.000 161.177,393.654 160.052,393.231 159.111 C 392.808 158.170,392.197 156.770,391.872 156.000 C 388.114 147.081,387.167 145.154,383.661 139.279 C 382.127 136.707,378.582 131.394,377.435 129.947 C 376.976 129.368,376.150 128.309,375.600 127.595 C 372.875 124.052,370.498 121.378,366.096 116.900 C 363.447 114.205,361.126 111.998,360.940 111.997 C 360.753 111.995,359.970 111.399,359.200 110.674 C 354.859 106.583,342.856 98.345,338.227 96.281 C 336.627 95.567,334.586 94.623,330.165 92.553 C 327.647 91.374,322.958 89.657,318.200 88.171 C 316.440 87.621,314.190 86.917,313.200 86.607 C 301.912 83.071,282.963 81.872,268.600 83.785 M103.900 83.482 C 104.395 83.578,105.205 83.578,105.700 83.482 C 106.195 83.387,105.790 83.309,104.800 83.309 C 103.810 83.309,103.405 83.387,103.900 83.482 M126.900 83.476 C 127.285 83.576,127.915 83.576,128.300 83.476 C 128.685 83.375,128.370 83.293,127.600 83.293 C 126.830 83.293,126.515 83.375,126.900 83.476 M399.304 211.600 C 399.030 212.810,398.528 215.780,398.187 218.200 C 397.846 220.620,397.128 224.310,396.591 226.400 C 394.450 234.739,393.557 237.879,392.837 239.600 C 392.422 240.590,391.360 243.110,390.477 245.200 C 389.593 247.290,388.762 249.270,388.630 249.600 C 388.498 249.930,387.923 251.010,387.353 252.000 C 386.783 252.990,385.771 254.790,385.105 256.000 C 382.348 261.011,381.692 262.095,379.400 265.421 C 375.962 270.412,375.716 270.737,372.415 274.656 C 364.644 283.881,353.638 293.676,347.500 296.830 C 346.235 297.480,345.200 298.168,345.200 298.359 C 345.200 298.550,344.255 299.174,343.100 299.745 C 341.945 300.317,340.280 301.227,339.400 301.768 C 337.524 302.922,332.491 305.395,328.800 306.977 C 327.370 307.590,325.801 308.340,325.314 308.645 C 324.827 308.950,324.096 309.200,323.689 309.200 C 323.283 309.200,322.205 309.560,321.294 310.000 C 320.384 310.440,319.433 310.800,319.181 310.800 C 318.671 310.800,313.447 312.283,312.200 312.782 C 302.758 316.559,276.054 317.117,259.800 313.877 C 257.203 313.359,256.080 313.105,251.800 312.064 C 250.920 311.850,248.490 311.044,246.400 310.272 C 244.310 309.500,241.700 308.557,240.600 308.177 C 235.561 306.436,221.996 299.227,218.342 296.349 C 217.541 295.717,216.714 295.200,216.504 295.200 C 216.295 295.200,215.781 294.819,215.362 294.353 C 214.943 293.887,214.302 293.392,213.937 293.253 C 213.033 292.908,208.196 288.868,204.129 285.061 C 201.248 282.363,200.688 281.995,200.150 282.442 C 199.582 282.913,199.586 282.985,200.191 283.197 C 200.559 283.326,201.701 284.250,202.730 285.251 C 203.758 286.252,205.718 287.987,207.085 289.106 C 208.452 290.225,209.802 291.333,210.085 291.567 C 212.273 293.380,215.264 295.602,216.600 296.409 C 217.480 296.940,218.502 297.650,218.870 297.987 C 219.239 298.324,220.589 299.140,221.870 299.800 C 223.152 300.460,224.472 301.214,224.804 301.475 C 225.686 302.169,235.062 306.956,237.400 307.906 C 238.500 308.353,240.480 309.114,241.800 309.598 C 243.120 310.082,244.560 310.614,245.000 310.780 C 260.213 316.526,283.105 318.706,300.200 316.037 C 306.463 315.059,311.928 313.881,313.093 313.257 C 313.563 313.006,314.327 312.800,314.791 312.800 C 315.256 312.800,317.472 312.154,319.718 311.364 C 321.963 310.574,324.548 309.688,325.462 309.395 C 327.140 308.856,329.593 307.756,336.257 304.556 C 338.268 303.590,340.027 302.800,340.166 302.800 C 340.306 302.800,341.308 302.215,342.394 301.500 C 343.481 300.785,345.501 299.486,346.885 298.613 C 349.912 296.702,357.253 291.168,359.200 289.329 C 359.970 288.602,360.753 288.005,360.940 288.003 C 361.126 288.002,363.447 285.795,366.096 283.100 C 370.498 278.622,372.875 275.948,375.600 272.405 C 376.150 271.691,376.976 270.632,377.435 270.053 C 378.582 268.606,382.127 263.293,383.661 260.721 C 387.216 254.764,388.294 252.571,391.877 244.000 C 392.199 243.230,392.808 241.830,393.231 240.889 C 393.654 239.948,394.000 238.823,394.000 238.389 C 394.000 237.955,394.166 237.600,394.368 237.600 C 394.571 237.600,394.850 237.015,394.989 236.300 C 395.127 235.585,395.664 233.560,396.181 231.800 C 397.276 228.072,398.267 223.755,398.614 221.200 C 398.749 220.210,399.125 218.298,399.450 216.952 C 399.775 215.605,399.987 213.355,399.920 211.952 L 399.800 209.400 399.304 211.600 M104.500 316.676 C 104.885 316.776,105.515 316.776,105.900 316.676 C 106.285 316.575,105.970 316.493,105.200 316.493 C 104.430 316.493,104.115 316.575,104.500 316.676 M126.900 316.676 C 127.285 316.776,127.915 316.776,128.300 316.676 C 128.685 316.575,128.370 316.493,127.600 316.493 C 126.830 316.493,126.515 316.575,126.900 316.676 " stroke="none" fill="#f9db99" fill-rule="evenodd"></path></g></svg>